<svg width="178" height="177" viewBox="0 0 178 177" fill="none" xmlns="http://www.w3.org/2000/svg">
<path d="M33.3954 150.456L20.9722 11.0625H157.528L145.088 150.433L89.1669 165.938L33.3954 150.456Z" fill="#1572B6"/>
<path d="M89.25 154.089L134.44 141.561L145.071 22.4623H89.25V154.089Z" fill="#33A9DC"/>
<path d="M89.25 72.9628H111.873L113.433 55.4563H89.25V38.3593H132.117L131.708 42.9447L127.51 90.0598H89.25V72.9628Z" fill="white"/>
<path d="M89.355 117.362L89.2775 117.384L70.239 112.24L69.0221 98.6056H51.8586L54.2537 125.449L89.272 135.173L89.355 135.151V117.362Z" fill="#EBEBEB"/>
<path d="M110.418 89.3352L108.36 112.229L89.2942 117.373V135.162L124.34 125.449L124.6 122.561L127.57 89.3352H110.418Z" fill="white"/>
<path d="M89.3109 38.3593V55.4563H48.0146L47.6716 51.6121L46.8917 42.9447L46.4824 38.3593H89.3109ZM89.25 72.9628V90.0598H70.4493L70.1064 86.2156L69.332 77.5482L68.9227 72.9628H89.25Z" fill="#EBEBEB"/>
</svg>
