<svg width="121" height="180" viewBox="0 0 121 180" fill="none" xmlns="http://www.w3.org/2000/svg">
<g clip-path="url(#clip0_64_36)">
<path d="M30.75 180C47.31 180 60.75 166.56 60.75 150V120H30.75C14.19 120 0.75 133.44 0.75 150C0.75 166.56 14.19 180 30.75 180Z" fill="#0ACF83"/>
<path d="M0.75 90C0.75 73.44 14.19 60 30.75 60H60.75V120H30.75C14.19 120 0.75 106.56 0.75 90Z" fill="#A259FF"/>
<path d="M0.75 30C0.75 13.44 14.19 0 30.75 0H60.75V60H30.75C14.19 60 0.75 46.56 0.75 30Z" fill="#F24E1E"/>
<path d="M60.75 0H90.75C107.31 0 120.75 13.44 120.75 30C120.75 46.56 107.31 60 90.75 60H60.75V0Z" fill="#FF7262"/>
<path d="M120.75 90C120.75 106.56 107.31 120 90.75 120C74.19 120 60.75 106.56 60.75 90C60.75 73.44 74.19 60 90.75 60C107.31 60 120.75 73.44 120.75 90Z" fill="#1ABCFE"/>
</g>
<defs>
<clipPath id="clip0_64_36">
<rect width="120" height="180" fill="white" transform="translate(0.75)"/>
</clipPath>
</defs>
</svg>
