<svg width="177" height="176" viewBox="0 0 177 176" fill="none" xmlns="http://www.w3.org/2000/svg">
<path d="M33.211 149.606L20.8525 11H156.648L144.273 149.584L88.6675 165L33.211 149.606Z" fill="#E44F26"/>
<path d="M88.75 153.219L133.685 140.761L144.256 22.3354H88.75V153.219Z" fill="#F1662A"/>
<path d="M88.75 73.7384H66.255L64.704 56.3309H88.75V39.3304H46.125L46.532 43.8954L50.7065 90.7389H88.75V73.7384ZM88.75 117.887L88.673 117.909L69.742 112.799L68.532 99.2419H51.4655L53.847 125.928L88.673 135.597L88.75 135.575V117.887Z" fill="#EBEBEB"/>
<path d="M88.6895 73.7384V90.7389H109.622L107.653 112.788L88.6895 117.903V135.591L123.543 125.928L123.796 123.057L127.789 78.3034L128.207 73.7384H88.6895ZM88.6895 39.3304V56.3309H129.752L130.093 52.5139L130.869 43.8954L131.276 39.3304H88.6895Z" fill="white"/>
</svg>
