<svg width="193" height="192" viewBox="0 0 193 192" fill="none" xmlns="http://www.w3.org/2000/svg">
<path d="M12.75 12H180.75V180H12.75V12Z" fill="#F5DE19"/>
<path d="M125.604 143.25C127.038 146.156 129.262 148.598 132.022 150.296C134.781 151.994 137.964 152.88 141.204 152.85C147.744 152.85 151.926 149.58 151.926 145.05C151.926 139.65 147.63 137.718 140.43 134.568L136.482 132.876C125.082 128.022 117.522 121.944 117.522 109.092C117.522 97.254 126.522 88.236 140.64 88.236C145.21 87.9068 149.776 88.93 153.769 91.178C157.761 93.4261 161.004 96.7996 163.092 100.878L150.75 108.768C149.945 106.746 148.545 105.016 146.736 103.808C144.926 102.599 142.792 101.969 140.616 102C139.666 101.905 138.708 102.009 137.801 102.305C136.893 102.601 136.058 103.082 135.347 103.719C134.637 104.356 134.066 105.134 133.673 106.003C133.279 106.872 133.071 107.814 133.062 108.768C133.062 113.502 135.996 115.422 142.77 118.368L146.718 120.06C160.134 125.814 167.718 131.676 167.718 144.858C167.718 159.072 156.552 166.86 141.558 166.86C135.716 167.228 129.893 165.9 124.788 163.036C119.684 160.171 115.517 155.892 112.788 150.714L125.604 143.25ZM69.8339 144.618C72.3119 149.016 74.5679 152.736 79.9919 152.736C85.1759 152.736 88.4519 150.708 88.4519 142.818V89.136H104.238V143.028C104.238 159.372 94.6379 166.812 80.6639 166.812C75.7244 167.082 70.8189 165.851 66.592 163.281C62.3652 160.711 59.0151 156.922 56.9819 152.412L69.8339 144.618Z" fill="black"/>
</svg>
