<svg width="890" height="1448" viewBox="0 0 890 1448" fill="none" xmlns="http://www.w3.org/2000/svg">
<g filter="url(#filter0_f_68_44)">
<path d="M-177.902 520.364C-137.579 452.299 -77.9782 397.72 -6.636 363.528C64.7062 329.336 144.585 317.068 222.9 328.274C301.215 339.48 374.448 373.658 433.339 426.485C492.229 479.312 534.132 548.415 553.749 625.057C573.366 701.699 569.815 782.437 543.545 857.061C517.276 931.685 469.468 996.843 406.167 1044.3C342.866 1091.75 266.915 1119.37 187.919 1123.65C108.923 1127.94 30.4292 1108.71 -37.6359 1068.38L-30.68 1056.64C35.0628 1095.59 110.878 1114.17 187.179 1110.03C263.481 1105.88 336.84 1079.21 397.981 1033.38C459.123 987.542 505.299 924.607 530.673 852.529C556.046 780.452 559.475 702.468 540.528 628.441C521.581 554.414 481.107 487.668 424.226 436.644C367.345 385.619 296.61 352.607 220.967 341.784C145.324 330.96 68.1704 342.81 -0.737801 375.835C-69.646 408.86 -127.214 461.577 -166.161 527.32L-177.902 520.364Z" fill="#808080" fill-opacity="0.8"/>
</g>
<g filter="url(#filter1_f_68_44)">
<path d="M-168.323 534.88C-131.59 474.355 -77.3768 426.115 -12.5402 396.262C52.2964 366.409 124.845 356.283 195.931 367.165C267.017 378.046 333.447 409.447 386.822 457.396C440.197 505.344 478.119 567.688 495.792 636.542C513.466 705.396 510.097 777.668 486.111 844.22C462.126 910.771 418.602 968.613 361.043 1010.43C303.483 1052.25 234.474 1076.16 162.742 1079.15C91.0094 1082.14 19.7756 1064.06 -41.9517 1027.21L-18.2796 988.21C35.5802 1020.36 97.7348 1036.13 160.325 1033.52C222.914 1030.92 283.128 1010.05 333.351 973.564C383.574 937.077 421.551 886.608 442.479 828.539C463.407 770.47 466.346 707.409 450.926 647.331C435.505 587.252 402.416 532.855 355.844 491.018C309.272 449.18 251.309 421.782 189.283 412.287C127.258 402.793 63.956 411.628 7.38321 437.676C-49.1896 463.724 -96.4926 505.815 -128.544 558.627L-168.323 534.88Z" fill="#808080" fill-opacity="0.8"/>
</g>
<defs>
<filter id="filter0_f_68_44" x="-187.902" y="314.24" width="764.143" height="820" filterUnits="userSpaceOnUse" color-interpolation-filters="sRGB">
<feFlood flood-opacity="0" result="BackgroundImageFix"/>
<feBlend mode="normal" in="SourceGraphic" in2="BackgroundImageFix" result="shape"/>
<feGaussianBlur stdDeviation="5" result="effect1_foregroundBlur_68_44"/>
</filter>
<filter id="filter1_f_68_44" x="-178.323" y="352.915" width="695.28" height="736.553" filterUnits="userSpaceOnUse" color-interpolation-filters="sRGB">
<feFlood flood-opacity="0" result="BackgroundImageFix"/>
<feBlend mode="normal" in="SourceGraphic" in2="BackgroundImageFix" result="shape"/>
<feGaussianBlur stdDeviation="5" result="effect1_foregroundBlur_68_44"/>
</filter>
</defs>
</svg>
