<svg width="193" height="192" viewBox="0 0 193 192" fill="none" xmlns="http://www.w3.org/2000/svg">
<path d="M96.7501 113.1C106.194 113.1 113.85 105.444 113.85 96C113.85 86.556 106.194 78.9 96.7501 78.9C87.3061 78.9 79.6501 86.556 79.6501 96C79.6501 105.444 87.3061 113.1 96.7501 113.1Z" fill="#61DAFB"/>
<path d="M161.7 67.8C158.4 66.6 154.95 65.4 151.35 64.35C152.25 60.75 153 57.15 153.6 53.7C156.75 33.9 153.3 19.95 143.7 14.55C140.85 12.9 137.7 12.15 134.1 12.15C123.6 12.15 110.25 19.95 96.7501 33C83.2501 19.95 69.9001 12.15 59.4001 12.15C55.8001 12.15 52.6501 12.9 49.8001 14.55C40.2001 20.1 36.7501 34.05 39.9001 53.7C40.5001 57.15 41.2501 60.75 42.1501 64.35C38.5501 65.4 35.1001 66.45 31.8001 67.8C13.0501 75 2.8501 84.9 2.8501 96C2.8501 107.1 13.2001 117 31.8001 124.2C35.1001 125.4 38.5501 126.6 42.1501 127.65C41.2501 131.25 40.5001 134.85 39.9001 138.3C36.7501 158.1 40.2001 172.05 49.8001 177.45C52.6501 179.1 55.8001 179.85 59.4001 179.85C70.0501 179.85 83.4001 172.05 96.7501 159C110.25 172.05 123.6 179.85 134.1 179.85C137.7 179.85 140.85 179.1 143.7 177.45C153.3 171.9 156.75 157.95 153.6 138.3C153 134.85 152.25 131.25 151.35 127.65C154.95 126.6 158.4 125.55 161.7 124.2C180.45 117 190.65 107.1 190.65 96C190.65 84.9 180.45 75 161.7 67.8ZM139.5 22.05C145.65 25.65 147.75 36.75 145.2 52.5C144.75 55.65 144 58.95 143.1 62.4C135.3 60.6 127.05 59.4 118.35 58.65C113.25 51.45 108 45 102.75 39.15C113.85 28.2 125.1 20.7 134.25 20.7C136.2 20.7 138 21.15 139.5 22.05ZM122.7 111C120 115.8 116.85 120.6 113.55 125.4C108 125.85 102.45 126 96.7501 126C90.9001 126 85.3501 125.85 79.9501 125.4C76.6501 120.6 73.6501 115.8 70.9501 111C68.1001 106.05 65.4001 100.95 63.0001 96C65.4001 91.05 68.1001 85.95 70.9501 81C73.6501 76.2 76.8001 71.4 80.1001 66.6C85.6501 66.15 91.2001 66 96.9001 66C102.75 66 108.3 66.15 113.7 66.6C117 71.4 120 76.2 122.7 81C125.55 85.95 128.25 91.05 130.65 96C128.1 100.95 125.55 105.9 122.7 111ZM135.15 106.05C137.4 111.3 139.2 116.4 140.85 121.5C135.75 122.7 130.35 123.6 124.65 124.35C126.45 121.5 128.4 118.5 130.05 115.35C131.85 112.2 133.5 109.05 135.15 106.05ZM96.7501 146.7C93.1501 142.8 89.7001 138.6 86.4001 134.25C89.8501 134.4 93.3001 134.55 96.7501 134.55C100.2 134.55 103.65 134.4 107.1 134.25C103.8 138.6 100.35 142.8 96.7501 146.7ZM68.8501 124.2C63.1501 123.45 57.7501 122.55 52.6501 121.35C54.3001 116.4 56.1001 111.15 58.3501 105.9C60.0001 108.9 61.6501 112.05 63.4501 115.05C65.2501 118.35 67.0501 121.2 68.8501 124.2ZM58.3501 85.95C56.1001 80.7 54.3001 75.6 52.6501 70.5C57.7501 69.3 63.1501 68.4 68.8501 67.65C67.0501 70.5 65.1001 73.5 63.4501 76.65C61.6501 79.8 60.0001 82.95 58.3501 85.95ZM96.7501 45.3C100.35 49.2 103.8 53.4 107.1 57.75C103.65 57.6 100.2 57.45 96.7501 57.45C93.3001 57.45 89.8501 57.6 86.4001 57.75C89.7001 53.4 93.1501 49.2 96.7501 45.3ZM130.05 76.8L124.65 67.8C130.35 68.55 135.75 69.45 140.85 70.65C139.2 75.6 137.4 80.85 135.15 86.1C133.5 82.95 131.85 79.8 130.05 76.8ZM48.3001 52.5C45.7501 36.75 47.8501 25.65 54.0001 22.05C55.5001 21.15 57.3001 20.7 59.2501 20.7C68.2501 20.7 79.5001 28.05 90.7501 39.15C85.5001 44.85 80.2501 51.45 75.1501 58.65C66.4501 59.4 58.2001 60.75 50.4001 62.4C49.5001 58.95 48.9001 55.65 48.3001 52.5ZM11.2501 96C11.2501 88.95 19.8001 81.45 34.8001 75.9C37.8001 74.7 41.1001 73.65 44.4001 72.75C46.8001 80.25 49.8001 88.2 53.4001 96.15C49.8001 104.1 46.6501 111.9 44.4001 119.4C23.7001 113.4 11.2501 104.4 11.2501 96ZM54.0001 169.95C47.8501 166.35 45.7501 155.25 48.3001 139.5C48.7501 136.35 49.5001 133.05 50.4001 129.6C58.2001 131.4 66.4501 132.6 75.1501 133.35C80.2501 140.55 85.5001 147 90.7501 152.85C79.6501 163.8 68.4001 171.3 59.2501 171.3C57.3001 171.3 55.5001 170.85 54.0001 169.95ZM145.2 139.5C147.75 155.25 145.65 166.35 139.5 169.95C138 170.85 136.2 171.3 134.25 171.3C125.25 171.3 114 163.95 102.75 152.85C108 147.15 113.25 140.55 118.35 133.35C127.05 132.6 135.3 131.25 143.1 129.6C144 133.05 144.6 136.35 145.2 139.5ZM158.7 116.1C155.7 117.3 152.4 118.35 149.1 119.25C146.7 111.75 143.7 103.8 140.1 95.85C143.7 87.9 146.85 80.1 149.1 72.6C169.8 78.6 182.25 87.6 182.25 96C182.25 103.05 173.55 110.55 158.7 116.1Z" fill="#61DAFB"/>
</svg>
