<svg width="183" height="182" viewBox="0 0 183 182" fill="none" xmlns="http://www.w3.org/2000/svg">
<path d="M32.9839 66.8281H174.702V171.578H32.9839V66.8281Z" fill="white"/>
<path d="M2.88281 90.8721V179.739H180.617V2.00488H2.88281V90.8721ZM146.108 83.7627C150.365 84.7506 154.234 86.977 157.227 90.1611C158.875 91.8767 160.307 93.7866 161.493 95.8486C161.493 96.0761 153.815 101.266 149.137 104.167C148.966 104.28 148.284 103.541 147.53 102.418C146.676 100.944 145.463 99.711 144.003 98.8333C142.544 97.9556 140.886 97.462 139.184 97.3985C133.795 97.0288 130.325 99.8583 130.354 104.508C130.311 105.665 130.576 106.814 131.122 107.835C132.302 110.295 134.506 111.759 141.416 114.745C154.142 120.22 159.588 123.831 162.972 128.964C166.754 134.652 167.593 143.837 165.033 150.633C162.19 158.027 155.222 163.046 145.369 164.71C140.868 165.226 136.321 165.178 131.833 164.568C124.953 163.434 118.616 160.131 113.746 155.141C112.111 153.335 108.926 148.629 109.125 148.287C109.643 147.901 110.19 147.554 110.76 147.249L117.344 143.609L122.448 140.652L123.515 142.23C125.315 144.804 127.605 146.998 130.254 148.686C135.942 151.671 143.705 151.259 147.544 147.804C148.833 146.538 149.637 144.86 149.817 143.062C149.996 141.264 149.539 139.46 148.525 137.965C147.104 135.988 144.26 134.325 136.312 130.855C127.14 126.902 123.188 124.457 119.576 120.561C117.322 117.989 115.658 114.956 114.699 111.674C113.985 107.924 113.879 104.083 114.386 100.299C116.277 91.4408 122.917 85.2557 132.615 83.4214C137.106 82.8666 141.654 82.9913 146.108 83.7911V83.7627ZM104.39 91.2133V98.4933H81.3134V164.227H64.9477V98.4791H41.8137V91.3697C41.7412 88.9181 41.7981 86.4643 41.9844 84.0186C42.0981 83.8907 56.2031 83.8907 73.2656 83.8907H104.305L104.39 91.2133Z" fill="#007ACC"/>
</svg>
