<svg width="88" height="132" viewBox="0 0 88 132" fill="none" xmlns="http://www.w3.org/2000/svg">
<path d="M53.0549 81.4414L50.8767 97H0.777931V95.7553L39.5967 41.6113H19.9928C14.0806 41.6113 10.0872 42.8819 8.01269 45.4232C7.28662 46.3567 6.69021 47.3939 6.22345 48.5349C5.80855 49.624 5.44552 51.2317 5.13434 53.3581H2.72276L4.512 38.1884H51.2657V39.5887L12.8359 93.6549H35.707C38.2483 93.6549 40.4524 93.3697 42.3194 92.7992C44.2383 92.1768 45.7164 91.2952 46.7537 90.1542C47.2204 89.6874 47.6094 89.1948 47.9205 88.6761C48.2836 88.1575 48.6207 87.587 48.9319 86.9647C49.2949 86.2905 49.632 85.5126 49.9432 84.6309C50.2543 83.7492 50.5914 82.6861 50.9545 81.4414H53.0549Z" fill="#679093"/>
<path d="M78.7571 76.5404C78.4978 74.7771 78.1607 73.3509 77.7458 72.2618C77.3828 71.1208 76.8382 70.2392 76.1121 69.6168C75.4379 68.9945 74.5044 68.5796 73.3116 68.3721C72.1706 68.1128 70.7185 67.9832 68.9552 67.9832H56.1193V87.4314C56.1193 88.9873 56.1971 90.2579 56.3527 91.2433C56.5601 92.2287 56.9491 93.0326 57.5196 93.6549C58.1419 94.2254 58.9717 94.6403 60.009 94.8996C61.0981 95.107 62.4983 95.2626 64.2098 95.3663V97H39.3938V95.3663C41.0534 95.2626 42.3759 95.0811 43.3612 94.8218C44.3985 94.5625 45.1764 94.1217 45.695 93.4993C46.2655 92.8251 46.6285 91.9434 46.7841 90.8543C46.9916 89.7134 47.0953 88.2094 47.0953 86.3423V47.9126C47.0953 46.3567 46.9916 45.0861 46.7841 44.1007C46.6285 43.1153 46.2655 42.3374 45.695 41.7669C45.1245 41.1964 44.3207 40.7815 43.2834 40.5222C42.2981 40.2629 41.0015 40.0814 39.3938 39.9777V38.1884H86.5364L86.692 50.9465H84.5916C84.1767 48.9239 83.7099 47.3161 83.1913 46.1233C82.6727 44.8786 81.9207 43.9192 80.9353 43.245C80.0018 42.5708 78.7312 42.1299 77.1234 41.9225C75.5676 41.715 73.545 41.6113 71.0556 41.6113H58.9977C57.753 41.6113 56.9491 41.7928 56.5861 42.1559C56.2749 42.5189 56.1193 43.3487 56.1193 44.6452V64.3269H68.9552C70.7185 64.3269 72.1706 64.2232 73.3116 64.0157C74.5044 63.8083 75.4379 63.3934 76.1121 62.771C76.8382 62.1487 77.3828 61.293 77.7458 60.2039C78.1607 59.1148 78.4978 57.6886 78.7571 55.9252H80.8575V76.5404H78.7571Z" fill="#679093"/>
</svg>
