<svg width="451" height="556" viewBox="0 0 451 556" fill="none" xmlns="http://www.w3.org/2000/svg">
<mask id="mask0_389_631" style="mask-type:alpha" maskUnits="userSpaceOnUse" x="0" y="0" width="451" height="556">
<rect x="0.5" y="0.5" width="450" height="555" fill="#D9D9D9" stroke="white"/>
</mask>
<g mask="url(#mask0_389_631)">
<path d="M265.5 9C433.92 9 570 128.998 570 276.5C570 424.002 433.92 544 265.5 544C97.0798 544 -39 424.002 -39 276.5C-39 128.998 97.0798 9 265.5 9Z" stroke="white" stroke-width="4"/>
<path d="M265.5 39.9502C415.282 39.9502 535.35 146.559 535.35 276.5C535.35 406.441 415.282 513.05 265.5 513.05C115.717 513.05 -4.3501 406.441 -4.3501 276.5C-4.34998 146.559 115.717 39.9504 265.5 39.9502Z" stroke="white" stroke-width="12"/>
</g>
</svg>
