<svg width="60" height="60" viewBox="0 0 94 94" fill="none" xmlns="http://www.w3.org/2000/svg">
<path d="M82.933 37.7542C81.5487 36.3075 80.1166 34.8167 79.5769 33.5059C79.0775 32.3052 79.0481 30.315 79.0187 28.3873C78.9637 24.8035 78.9049 20.7424 76.0812 17.9187C73.2576 15.0951 69.1965 15.0363 65.6127 14.9812C63.685 14.9519 61.6948 14.9225 60.4941 14.4231C59.187 13.8834 57.6925 12.4513 56.2458 11.067C53.7122 8.63258 50.8334 5.875 47 5.875C43.1666 5.875 40.2915 8.63258 37.7542 11.067C36.3075 12.4513 34.8167 13.8834 33.5059 14.4231C32.3125 14.9225 30.315 14.9519 28.3873 14.9812C24.8035 15.0363 20.7424 15.0951 17.9187 17.9187C15.0951 20.7424 15.0547 24.8035 14.9812 28.3873C14.9519 30.315 14.9225 32.3052 14.4231 33.5059C13.8834 34.813 12.4513 36.3075 11.067 37.7542C8.63258 40.2878 5.875 43.1666 5.875 47C5.875 50.8334 8.63258 53.7085 11.067 56.2458C12.4513 57.6925 13.8834 59.1833 14.4231 60.4941C14.9225 61.6948 14.9519 63.685 14.9812 65.6127C15.0363 69.1965 15.0951 73.2576 17.9187 76.0812C20.7424 78.9049 24.8035 78.9637 28.3873 79.0187C30.315 79.0481 32.3052 79.0775 33.5059 79.5769C34.813 80.1166 36.3075 81.5487 37.7542 82.933C40.2878 85.3674 43.1666 88.125 47 88.125C50.8334 88.125 53.7085 85.3674 56.2458 82.933C57.6925 81.5487 59.1833 80.1166 60.4941 79.5769C61.6948 79.0775 63.685 79.0481 65.6127 79.0187C69.1965 78.9637 73.2576 78.9049 76.0812 76.0812C78.9049 73.2576 78.9637 69.1965 79.0187 65.6127C79.0481 63.685 79.0775 61.6948 79.5769 60.4941C80.1166 59.187 81.5487 57.6925 82.933 56.2458C85.3674 53.7122 88.125 50.8334 88.125 47C88.125 43.1666 85.3674 40.2915 82.933 37.7542ZM63.7658 40.2658L43.2033 60.8283C42.9305 61.1014 42.6065 61.3181 42.2499 61.4659C41.8933 61.6137 41.511 61.6898 41.125 61.6898C40.739 61.6898 40.3567 61.6137 40.0001 61.4659C39.6435 61.3181 39.3195 61.1014 39.0467 60.8283L30.2342 52.0158C29.9613 51.7429 29.7448 51.4188 29.5971 51.0623C29.4494 50.7057 29.3734 50.3235 29.3734 49.9375C29.3734 49.5515 29.4494 49.1693 29.5971 48.8127C29.7448 48.4562 29.9613 48.1321 30.2342 47.8592C30.7854 47.308 31.533 46.9984 32.3125 46.9984C32.6985 46.9984 33.0807 47.0744 33.4373 47.2221C33.7938 47.3698 34.1179 47.5863 34.3908 47.8592L41.125 54.5971L59.6092 36.1092C59.8821 35.8363 60.2062 35.6198 60.5627 35.4721C60.9193 35.3244 61.3015 35.2484 61.6875 35.2484C62.0735 35.2484 62.4557 35.3244 62.8123 35.4721C63.1688 35.6198 63.4929 35.8363 63.7658 36.1092C64.0387 36.3821 64.2552 36.7062 64.4029 37.0627C64.5506 37.4193 64.6266 37.8015 64.6266 38.1875C64.6266 38.5735 64.5506 38.9557 64.4029 39.3123C64.2552 39.6688 64.0387 39.9929 63.7658 40.2658Z" fill="#27F7B2"/>
</svg>
