<svg width="97" height="97" viewBox="0 0 97 97" fill="none" xmlns="http://www.w3.org/2000/svg">
<path d="M34.354 8.0835C31.1383 8.0835 28.0542 9.36095 25.7803 11.6348C23.5065 13.9087 22.229 16.9927 22.229 20.2085C22.229 23.4242 23.5065 26.5083 25.7803 28.7822C28.0542 31.056 31.1383 32.3335 34.354 32.3335H62.6457C65.8614 32.3335 68.9455 31.056 71.2193 28.7822C73.4932 26.5083 74.7707 23.4242 74.7707 20.2085C74.7707 16.9927 73.4932 13.9087 71.2193 11.6348C68.9455 9.36095 65.8614 8.0835 62.6457 8.0835H34.354ZM62.6457 36.3752C59.4299 36.3752 56.3459 37.6526 54.072 39.9265C51.7981 42.2004 50.5207 45.2844 50.5207 48.5002C50.5207 51.7159 51.7981 54.8 54.072 57.0738C56.3459 59.3477 59.4299 60.6252 62.6457 60.6252C65.8614 60.6252 68.9455 59.3477 71.2193 57.0738C73.4932 54.8 74.7707 51.7159 74.7707 48.5002C74.7707 45.2844 73.4932 42.2004 71.2193 39.9265C68.9455 37.6526 65.8614 36.3752 62.6457 36.3752ZM22.229 48.5002C22.229 45.2844 23.5065 42.2004 25.7803 39.9265C28.0542 37.6526 31.1383 36.3752 34.354 36.3752H46.479V60.6252H34.354C31.1383 60.6252 28.0542 59.3477 25.7803 57.0738C23.5065 54.8 22.229 51.7159 22.229 48.5002ZM34.354 64.6668C31.9559 64.6668 29.6117 65.3779 27.6177 66.7103C25.6238 68.0426 24.0697 69.9362 23.152 72.1518C22.2343 74.3673 21.9941 76.8053 22.462 79.1573C22.9298 81.5093 24.0846 83.6698 25.7803 85.3655C27.4761 87.0612 29.6365 88.216 31.9885 88.6838C34.3406 89.1517 36.7785 88.9116 38.994 87.9939C41.2096 87.0762 43.1033 85.5221 44.4356 83.5281C45.7679 81.5342 46.479 79.1899 46.479 76.7918V64.6668H34.354Z" fill="#171717"/>
</svg>
