<svg width="48" height="47" viewBox="0 0 48 47" fill="none" xmlns="http://www.w3.org/2000/svg">
<path d="M24.1271 0.733887C21.0188 0.733887 17.941 1.34611 15.0693 2.53559C12.1976 3.72507 9.58839 5.46852 7.39052 7.6664C2.95171 12.1052 0.458008 18.1255 0.458008 24.403C0.458008 34.8647 7.25103 43.7406 16.6476 46.8886C17.8311 47.0779 18.2098 46.3442 18.2098 45.7051V41.705C11.6535 43.1252 10.257 38.5334 10.257 38.5334C9.16822 35.7878 7.62973 35.054 7.62973 35.054C5.47585 33.5865 7.79542 33.6339 7.79542 33.6339C10.1623 33.7996 11.4168 36.0718 11.4168 36.0718C13.476 39.6695 16.9553 38.6044 18.3045 38.0363C18.5175 36.4978 19.1329 35.4564 19.7956 34.8647C14.5411 34.2729 9.02621 32.2374 9.02621 23.2195C9.02621 20.5922 9.92563 18.4857 11.4641 16.8052C11.2274 16.2135 10.399 13.7519 11.7008 10.5565C11.7008 10.5565 13.689 9.91748 18.2098 12.9708C20.0797 12.4501 22.1152 12.1897 24.1271 12.1897C26.1389 12.1897 28.1745 12.4501 30.0443 12.9708C34.5651 9.91748 36.5533 10.5565 36.5533 10.5565C37.8551 13.7519 37.0267 16.2135 36.79 16.8052C38.3285 18.4857 39.2279 20.5922 39.2279 23.2195C39.2279 32.2611 33.6894 34.2493 28.4112 34.841C29.2633 35.5747 30.0443 37.0186 30.0443 39.2198V45.7051C30.0443 46.3442 30.423 47.1016 31.6302 46.8886C41.0268 43.7169 47.7961 34.8647 47.7961 24.403C47.7961 21.2947 47.1839 18.2169 45.9944 15.3452C44.805 12.4735 43.0615 9.86427 40.8636 7.6664C38.6658 5.46852 36.0565 3.72507 33.1848 2.53559C30.3132 1.34611 27.2353 0.733887 24.1271 0.733887Z" fill="black"/>
</svg>
