<svg width="60" height="60" viewBox="0 0 102 81" fill="none" xmlns="http://www.w3.org/2000/svg">
<path d="M69.2803 10.125H55.59C54.315 10.125 53.0878 10.5996 52.1475 11.4539L36.4809 25.6922C36.465 25.708 36.4491 25.7396 36.4331 25.7555C33.7875 28.2234 33.8353 32.1627 36.0984 34.6148C38.1225 36.8139 42.3778 37.3992 45.0394 35.042C45.0553 35.0262 45.0872 35.0262 45.1031 35.0104L57.8372 23.4299C58.8731 22.4965 60.4987 22.5598 61.4391 23.5881C62.3953 24.6164 62.3156 26.2143 61.2797 27.1635L57.12 30.9445L80.325 49.6441C80.7872 50.0238 81.2016 50.4352 81.5841 50.8623V20.25L72.8822 11.6121C71.9419 10.6629 70.635 10.125 69.2803 10.125ZM86.7 20.2816V55.7033C86.7 58.5035 88.9791 60.7658 91.8 60.7658H102V20.2816H86.7ZM94.35 55.7033C92.9475 55.7033 91.8 54.5643 91.8 53.1721C91.8 51.7799 92.9475 50.6408 94.35 50.6408C95.7525 50.6408 96.9 51.7799 96.9 53.1721C96.9 54.5643 95.7525 55.7033 94.35 55.7033ZM0 60.75H10.2C13.0209 60.75 15.3 58.4877 15.3 55.6875V20.2816H0V60.75ZM7.65 50.6408C9.0525 50.6408 10.2 51.7799 10.2 53.1721C10.2 54.5643 9.0525 55.7033 7.65 55.7033C6.2475 55.7033 5.1 54.5643 5.1 53.1721C5.1 51.7641 6.2475 50.6408 7.65 50.6408ZM77.1216 53.5834L53.3269 34.4092L48.5456 38.7598C43.8122 43.0471 36.5606 42.6357 32.3372 38.0637C28.05 33.4125 28.3847 26.2143 33.0384 21.9744L46.0753 10.125H32.7197C31.365 10.125 30.0741 10.6629 29.1178 11.6121L20.4 20.25V55.6717H23.3166L37.74 68.6285C42.1069 72.1564 48.5297 71.492 52.0837 67.1572L52.1156 67.1256L54.9684 69.5777C57.5025 71.6344 61.2478 71.2389 63.3037 68.7234L68.3081 62.6168L69.1687 63.3129C71.3522 65.0689 74.5716 64.7525 76.3406 62.5693L77.8547 60.7184C79.6397 58.5352 79.305 55.3553 77.1216 53.5834Z" fill="#27F7B2"/>
</svg>
