<svg width="520" height="325" viewBox="0 0 520 325" fill="none" xmlns="http://www.w3.org/2000/svg">
<rect x="175" y="116" width="84" height="84" rx="7" fill="white"/>
<path d="M228.445 163.25C228.655 161.517 228.812 159.785 228.812 158C228.812 156.215 228.655 154.483 228.445 152.75H237.318C237.737 154.43 238 156.189 238 158C238 159.811 237.737 161.57 237.318 163.25M223.799 177.845C225.374 174.931 226.581 171.781 227.421 168.5H235.165C232.622 172.879 228.587 176.196 223.799 177.845ZM223.143 163.25H210.858C210.595 161.517 210.438 159.785 210.438 158C210.438 156.215 210.595 154.456 210.858 152.75H223.143C223.379 154.456 223.562 156.215 223.562 158C223.562 159.785 223.379 161.517 223.143 163.25ZM217 178.895C214.821 175.745 213.062 172.254 211.986 168.5H222.014C220.938 172.254 219.179 175.745 217 178.895ZM206.5 147.5H198.835C201.351 143.108 205.383 139.786 210.175 138.155C208.6 141.069 207.419 144.219 206.5 147.5ZM198.835 168.5H206.5C207.419 171.781 208.6 174.931 210.175 177.845C205.393 176.197 201.366 172.879 198.835 168.5ZM196.683 163.25C196.263 161.57 196 159.811 196 158C196 156.189 196.263 154.43 196.683 152.75H205.555C205.345 154.483 205.188 156.215 205.188 158C205.188 159.785 205.345 161.517 205.555 163.25M217 137.079C219.179 140.229 220.938 143.746 222.014 147.5H211.986C213.062 143.746 214.821 140.229 217 137.079ZM235.165 147.5H227.421C226.598 144.249 225.382 141.111 223.799 138.155C228.629 139.809 232.645 143.142 235.165 147.5ZM217 131.75C202.484 131.75 190.75 143.562 190.75 158C190.75 164.962 193.516 171.639 198.438 176.562C200.876 178.999 203.77 180.933 206.955 182.252C210.139 183.571 213.553 184.25 217 184.25C223.962 184.25 230.639 181.484 235.562 176.562C240.484 171.639 243.25 164.962 243.25 158C243.25 154.553 242.571 151.139 241.252 147.955C239.933 144.77 237.999 141.876 235.562 139.438C233.124 137.001 230.23 135.067 227.045 133.748C223.861 132.429 220.447 131.75 217 131.75Z" fill="black"/>
<mask id="mask0_265_205" style="mask-type:alpha" maskUnits="userSpaceOnUse" x="37" y="70" width="175" height="92">
<rect x="41.5" y="74.5" width="166" height="83" rx="5.5" stroke="white" stroke-width="9"/>
</mask>
<g mask="url(#mask0_265_205)">
<rect x="25.3867" y="94" width="153.375" height="80" fill="white"/>
</g>
<rect y="10" width="84" height="84" rx="7" fill="white"/>
<path d="M42.5003 51.5001C39.7045 51.5001 37.3111 50.5046 35.3201 48.5136C33.3291 46.5227 32.3337 44.1292 32.3337 41.3334C32.3337 38.5376 33.3291 36.1442 35.3201 34.1532C37.3111 32.1622 39.7045 31.1667 42.5003 31.1667C45.2962 31.1667 47.6896 32.1622 49.6805 34.1532C51.6715 36.1442 52.667 38.5376 52.667 41.3334C52.667 44.1292 51.6715 46.5227 49.6805 48.5136C47.6896 50.5046 45.2962 51.5001 42.5003 51.5001ZM22.167 66.7501V64.7168C22.167 63.2765 22.5381 61.9531 23.2802 60.7467C24.0224 59.5402 25.0069 58.6184 26.2337 57.9813C28.86 56.6681 31.5288 55.6837 34.2399 55.0279C36.951 54.3722 39.7045 54.0434 42.5003 54.0417C45.2962 54.0401 48.0496 54.3688 50.7607 55.0279C53.4719 55.6871 56.1406 56.6715 58.767 57.9813C59.9955 58.6167 60.9808 59.5385 61.7229 60.7467C62.4651 61.9548 62.8354 63.2782 62.8337 64.7168V66.7501C62.8337 68.148 62.3363 69.3451 61.3417 70.3415C60.3471 71.3378 59.1499 71.8351 57.7503 71.8334H27.2503C25.8524 71.8334 24.6561 71.3361 23.6615 70.3415C22.6669 69.3468 22.1687 68.1497 22.167 66.7501Z" fill="black"/>
<rect x="436" y="116" width="84" height="84" rx="7" fill="white"/>
<path d="M488.532 155.145C492.744 155.145 496.119 151.745 496.119 147.533C496.119 143.321 492.744 139.92 488.532 139.92C484.32 139.92 480.92 143.321 480.92 147.533C480.92 151.745 484.32 155.145 488.532 155.145ZM468.232 155.145C472.444 155.145 475.819 151.745 475.819 147.533C475.819 143.321 472.444 139.92 468.232 139.92C464.02 139.92 460.62 143.321 460.62 147.533C460.62 151.745 464.02 155.145 468.232 155.145ZM468.232 160.22C462.32 160.22 450.47 163.189 450.47 169.102V172.908C450.47 174.304 451.612 175.445 453.007 175.445H483.457C484.853 175.445 485.995 174.304 485.995 172.908V169.102C485.995 163.189 474.145 160.22 468.232 160.22ZM488.532 160.22C487.796 160.22 486.959 160.271 486.071 160.347C486.122 160.373 486.147 160.423 486.172 160.449C489.065 162.555 491.07 165.372 491.07 169.102V172.908C491.07 173.796 490.892 174.659 490.613 175.445H503.757C505.153 175.445 506.295 174.304 506.295 172.908V169.102C506.295 163.189 494.445 160.22 488.532 160.22Z" fill="black"/>
<mask id="mask1_265_205" style="mask-type:alpha" maskUnits="userSpaceOnUse" x="243" y="61" width="201" height="102">
<rect x="247.5" y="65.5" width="192" height="93" rx="5.5" stroke="white" stroke-width="9"/>
</mask>
<g mask="url(#mask1_265_205)">
<rect x="237" y="154" width="211" height="23" fill="white"/>
</g>
<mask id="mask2_265_205" style="mask-type:alpha" maskUnits="userSpaceOnUse" x="222" y="69" width="182" height="73">
<rect x="-4.52675" y="4.47309" width="172.563" height="62.8946" rx="5.5" transform="matrix(-0.999982 -0.00596275 -0.00596275 0.999982 394.962 70.0556)" stroke="white" stroke-width="9"/>
</mask>
<g mask="url(#mask2_265_205)">
<rect width="159.127" height="68.316" transform="matrix(-0.999982 -0.00596275 -0.00596275 0.999982 415.959 83.1104)" fill="white"/>
</g>
<rect x="357" width="84" height="84" rx="7" fill="white"/>
<path fill-rule="evenodd" clip-rule="evenodd" d="M385.938 23.0178V26.9228L381.279 27.3023C379.679 27.4311 378.168 28.0928 376.988 29.1816C375.808 30.2704 375.027 31.7234 374.77 33.3083C374.656 34.0178 374.552 34.7282 374.456 35.4395C374.435 35.6116 374.468 35.7861 374.552 35.9382C374.635 36.0902 374.765 36.2121 374.921 36.2865L375.133 36.3855C390.063 43.453 407.941 43.453 422.868 36.3855L423.079 36.2865C423.235 36.2117 423.364 36.0896 423.447 35.9376C423.53 35.7856 423.563 35.6113 423.541 35.4395C423.448 34.7276 423.344 34.0172 423.23 33.3083C422.974 31.7234 422.193 30.2704 421.013 29.1816C419.833 28.0928 418.322 27.4311 416.721 27.3023L412.063 26.9255V23.0205C412.063 21.8679 411.65 20.7534 410.898 19.8798C410.146 19.0062 409.105 18.4315 407.965 18.2603L404.61 17.757C400.891 17.2011 397.11 17.2011 393.39 17.757L390.035 18.2603C388.896 18.4315 387.856 19.0057 387.104 19.8788C386.352 20.7518 385.938 21.8656 385.938 23.0178ZM403.997 21.8353C400.684 21.3405 397.316 21.3405 394.003 21.8353L390.649 22.3385C390.486 22.3629 390.337 22.4448 390.23 22.5695C390.122 22.6941 390.063 22.8532 390.063 23.0178V26.634C396.016 26.294 401.984 26.294 407.938 26.634V23.0178C407.938 22.8532 407.878 22.6941 407.771 22.5695C407.663 22.4448 407.515 22.3629 407.352 22.3385L403.997 21.8353Z" fill="black"/>
<path d="M424.075 41.1926C424.069 41.1037 424.043 41.0174 423.996 40.9412C423.95 40.8651 423.886 40.8012 423.81 40.7552C423.734 40.7092 423.647 40.6825 423.558 40.6772C423.469 40.672 423.381 40.6884 423.299 40.7251C407.979 47.5093 390.022 47.5093 374.701 40.7251C374.62 40.6884 374.531 40.672 374.442 40.6772C374.354 40.6825 374.267 40.7092 374.191 40.7552C374.115 40.8012 374.051 40.8651 374.005 40.9412C373.958 41.0174 373.931 41.1037 373.926 41.1926C373.647 46.4574 373.93 51.737 374.77 56.9418C375.027 58.5273 375.807 59.9809 376.987 61.0702C378.167 62.1596 379.679 62.8217 381.279 62.9506L386.427 63.3631C394.796 64.0396 403.202 64.0396 411.573 63.3631L416.721 62.9506C418.322 62.8217 419.834 62.1596 421.014 61.0702C422.194 59.9809 422.974 58.5273 423.231 56.9418C424.072 51.7306 424.358 46.4506 424.075 41.1953" fill="black"/>
<mask id="mask3_265_205" style="mask-type:alpha" maskUnits="userSpaceOnUse" x="222" y="175" width="121" height="81">
<rect x="337.838" y="251.511" width="111.315" height="71.3218" rx="5.5" transform="rotate(-179.658 337.838 251.511)" stroke="white" stroke-width="9"/>
</mask>
<g mask="url(#mask3_265_205)">
<rect x="350.42" y="235.132" width="105.448" height="69.845" transform="rotate(-179.658 350.42 235.132)" fill="white"/>
</g>
<rect x="295.929" y="235" width="84" height="84" rx="7" fill="white"/>
<path d="M332.914 299.052L326.933 287.935L315.816 281.954L320.106 277.725L328.866 279.235L335.029 273.073L315.877 264.917L320.952 259.721L344.212 263.829L351.704 256.337C352.63 255.411 353.778 254.948 355.148 254.948C356.517 254.948 357.665 255.411 358.591 256.337C359.518 257.264 359.981 258.401 359.981 259.75C359.981 261.098 359.518 262.236 358.591 263.164L351.039 270.717L355.148 293.917L350.012 299.052L341.796 279.9L335.633 286.062L337.204 294.762L332.914 299.052Z" fill="black"/>
</svg>
