<svg width="50" height="50" viewBox="0 0 50 50" fill="none" xmlns="http://www.w3.org/2000/svg">
<path d="M27.1412 4.16675C29.485 4.173 30.6746 4.1855 31.7016 4.21466L32.1058 4.22925C32.5725 4.24591 33.0329 4.26675 33.5891 4.29175C35.8058 4.39591 37.3183 4.74591 38.6454 5.2605C40.0204 5.78967 41.1787 6.50633 42.3371 7.66258C43.3968 8.70369 44.2166 9.96357 44.7391 11.3542C45.2537 12.6813 45.6037 14.1938 45.7079 16.4126C45.7329 16.9667 45.7537 17.4272 45.7704 17.8959L45.7829 18.3001C45.8141 19.3251 45.8266 20.5147 45.8308 22.8584L45.8329 24.4126V27.1418C45.838 28.6613 45.822 30.1809 45.785 31.7001L45.7725 32.1042C45.7558 32.573 45.735 33.0334 45.71 33.5876C45.6058 35.8063 45.2516 37.3167 44.7391 38.6459C44.2166 40.0366 43.3968 41.2965 42.3371 42.3376C41.296 43.3974 40.0361 44.2171 38.6454 44.7397C37.3183 45.2543 35.8058 45.6043 33.5891 45.7084L32.1058 45.7709L31.7016 45.7834C30.6746 45.8126 29.485 45.8272 27.1412 45.8313L25.5871 45.8334H22.86C21.3397 45.8388 19.8194 45.8228 18.2996 45.7855L17.8954 45.773C17.4008 45.7543 16.9064 45.7327 16.4121 45.7084C14.1954 45.6043 12.6829 45.2543 11.3537 44.7397C9.96379 44.2169 8.70465 43.3971 7.66414 42.3376C6.60361 41.2967 5.78312 40.0368 5.25997 38.6459C4.74539 37.3188 4.39539 35.8063 4.29122 33.5876L4.22872 32.1042L4.21831 31.7001C4.1799 30.181 4.16254 28.6614 4.16622 27.1418V22.8584C4.16046 21.3388 4.17574 19.8192 4.21206 18.3001L4.22664 17.8959C4.24331 17.4272 4.26414 16.9667 4.28914 16.4126C4.39331 14.1938 4.74331 12.6834 5.25789 11.3542C5.78225 9.963 6.60419 8.70307 7.66622 7.66258C8.70613 6.60331 9.96453 5.78357 11.3537 5.2605C12.6829 4.74591 14.1933 4.39591 16.4121 4.29175C16.9662 4.26675 17.4287 4.24591 17.8954 4.22925L18.2996 4.21675C19.8187 4.17973 21.3383 4.16376 22.8579 4.16883L27.1412 4.16675ZM24.9996 14.5834C22.2369 14.5834 19.5874 15.6809 17.6339 17.6344C15.6804 19.5879 14.5829 22.2374 14.5829 25.0001C14.5829 27.7628 15.6804 30.4123 17.6339 32.3658C19.5874 34.3193 22.2369 35.4167 24.9996 35.4167C27.7622 35.4167 30.4118 34.3193 32.3653 32.3658C34.3188 30.4123 35.4162 27.7628 35.4162 25.0001C35.4162 22.2374 34.3188 19.5879 32.3653 17.6344C30.4118 15.6809 27.7622 14.5834 24.9996 14.5834ZM24.9996 18.7501C25.8203 18.7499 26.6331 18.9115 27.3914 19.2254C28.1497 19.5394 28.8388 19.9997 29.4193 20.5799C29.9997 21.1602 30.4602 21.8491 30.7744 22.6073C31.0887 23.3656 31.2505 24.1783 31.2506 24.999C31.2507 25.8198 31.0892 26.6326 30.7752 27.3909C30.4613 28.1492 30.001 28.8383 29.4208 29.4188C28.8405 29.9992 28.1516 30.4597 27.3933 30.7739C26.6351 31.0882 25.8224 31.2499 25.0016 31.2501C23.344 31.2501 21.7543 30.5916 20.5822 29.4195C19.4101 28.2474 18.7516 26.6577 18.7516 25.0001C18.7516 23.3425 19.4101 21.7528 20.5822 20.5807C21.7543 19.4086 23.344 18.7501 25.0016 18.7501M35.9391 11.4584C35.2485 11.4584 34.5861 11.7328 34.0977 12.2212C33.6093 12.7095 33.335 13.3719 33.335 14.0626C33.335 14.7533 33.6093 15.4156 34.0977 15.904C34.5861 16.3924 35.2485 16.6667 35.9391 16.6667C36.6298 16.6667 37.2922 16.3924 37.7806 15.904C38.2689 15.4156 38.5433 14.7533 38.5433 14.0626C38.5433 13.3719 38.2689 12.7095 37.7806 12.2212C37.2922 11.7328 36.6298 11.4584 35.9391 11.4584Z" fill="white"/>
</svg>
