<svg width="50" height="50" viewBox="0 0 50 50" fill="none" xmlns="http://www.w3.org/2000/svg">
<path fill-rule="evenodd" clip-rule="evenodd" d="M19.6441 18.6855H27.3816V22.5397C28.4962 20.323 31.3545 18.3313 35.6482 18.3313C43.8795 18.3313 45.8337 22.7438 45.8337 30.8397V45.8334H37.5003V32.6834C37.5003 28.073 36.3857 25.473 33.5482 25.473C29.6128 25.473 27.9774 28.2751 27.9774 32.6813V45.8334H19.6441V18.6855ZM5.35449 45.4793H13.6878V18.3313H5.35449V45.4793ZM14.8816 9.47925C14.8819 10.1777 14.7434 10.8693 14.474 11.5138C14.2047 12.1583 13.81 12.7428 13.3128 13.2334C12.8142 13.7295 12.2226 14.1225 11.572 14.3898C10.9215 14.6572 10.2246 14.7938 9.52116 14.7918C8.10366 14.7886 6.7439 14.2298 5.73366 13.2355C5.23845 12.7431 4.84518 12.1579 4.57636 11.5134C4.30753 10.8688 4.16843 10.1776 4.16699 9.47925C4.16699 8.06883 4.72949 6.71883 5.73574 5.723C6.74345 4.72484 8.10486 4.16545 9.52324 4.16675C10.9441 4.16675 12.3066 4.72717 13.3128 5.723C14.3191 6.71883 14.8816 8.06883 14.8816 9.47925Z" fill="white"/>
</svg>
