<svg width="66" height="98" viewBox="0 0 66 98" fill="none" xmlns="http://www.w3.org/2000/svg">
<path d="M39.911 61.2959L38.2724 73H0.585205V72.0637L29.7869 31.3334H15.0398C10.5922 31.3334 7.58816 32.2892 6.02761 34.2009C5.48142 34.9031 5.03276 35.6834 4.68164 36.5417C4.36953 37.361 4.09644 38.5704 3.86235 40.17H2.04822L3.39419 28.7585H38.565V29.8119L9.65588 70.4836H26.8609C28.7726 70.4836 30.4307 70.269 31.8352 69.8399C33.2787 69.3717 34.3906 68.7085 35.1708 67.8502C35.5219 67.4991 35.8146 67.1284 36.0486 66.7383C36.3217 66.3482 36.5753 65.919 36.8094 65.4509C37.0825 64.9437 37.3361 64.3585 37.5702 63.6952C37.8042 63.032 38.0578 62.2322 38.3309 61.2959H39.911Z" fill="white"/>
<path d="M58.9121 57.6091C58.717 56.2826 58.4635 55.2098 58.1513 54.3905C57.8782 53.5322 57.4686 52.8689 56.9224 52.4008C56.4152 51.9326 55.713 51.6205 54.8157 51.4645C53.9574 51.2694 52.865 51.1719 51.5385 51.1719H41.8826V65.802C41.8826 66.9724 41.9412 67.9282 42.0582 68.6695C42.2143 69.4107 42.5069 70.0155 42.936 70.4836C43.4042 70.9128 44.0284 71.2249 44.8087 71.4199C45.628 71.576 46.6813 71.693 47.9688 71.7711V73H29.3007V71.7711C30.5492 71.693 31.544 71.5565 32.2853 71.3614C33.0656 71.1664 33.6508 70.8347 34.0409 70.3666C34.47 69.8594 34.7431 69.1962 34.8602 68.3769C35.0162 67.5186 35.0943 66.3872 35.0943 64.9827V36.0736C35.0943 34.9031 35.0162 33.9473 34.8602 33.2061C34.7431 32.4648 34.47 31.8796 34.0409 31.4504C33.6117 31.0213 33.007 30.7092 32.2268 30.5141C31.4855 30.319 30.5102 30.1825 29.3007 30.1045V28.7585H64.7642L64.8812 38.3559H63.3011C62.989 36.8343 62.6379 35.6249 62.2478 34.7276C61.8576 33.7913 61.2919 33.0695 60.5507 32.5623C59.8484 32.0552 58.8926 31.7235 57.6832 31.5675C56.5128 31.4114 54.9912 31.3334 53.1186 31.3334H44.0479C43.1116 31.3334 42.5069 31.4699 42.2338 31.743C41.9997 32.0161 41.8826 32.6404 41.8826 33.6157V48.4214H51.5385C52.865 48.4214 53.9574 48.3434 54.8157 48.1873C55.713 48.0313 56.4152 47.7191 56.9224 47.251C57.4686 46.7828 57.8782 46.1391 58.1513 45.3198C58.4635 44.5005 58.717 43.4276 58.9121 42.1012H60.4922V57.6091H58.9121Z" fill="white"/>
</svg>
