<svg width="74" height="99" viewBox="0 0 74 99" fill="none" xmlns="http://www.w3.org/2000/svg">
<g clip-path="url(#clip0_213_119)">
<mask id="mask0_213_119" style="mask-type:alpha" maskUnits="userSpaceOnUse" x="2" y="17" width="74" height="79">
<path d="M64.6027 44.8275C71.1522 51.1943 71.1522 61.0983 64.6027 67.8188L68.2413 71.356C77.3378 63.2206 77.3378 49.7795 68.2413 41.2903L64.6027 44.8275ZM60.6003 48.7183L56.9617 52.2554C58.781 54.7314 58.781 57.9149 56.9617 60.3909L60.6003 63.928C64.9666 59.6834 64.9666 53.3166 60.6003 48.7183ZM46.0459 17.5916H9.65999C7.72997 17.5916 5.87899 18.3369 4.51425 19.6636C3.14951 20.9902 2.38281 22.7896 2.38281 24.6658V88.3342C2.38281 90.2104 3.14951 92.0098 4.51425 93.3364C5.87899 94.6631 7.72997 95.4085 9.65999 95.4085H46.0459C47.9759 95.4085 49.8269 94.6631 51.1916 93.3364C52.5564 92.0098 53.3231 90.2104 53.3231 88.3342V24.6658C53.3231 22.7896 52.5564 20.9902 51.1916 19.6636C49.8269 18.3369 47.9759 17.5916 46.0459 17.5916ZM46.0459 84.7971H9.65999V28.2029H46.0459V84.7971Z" fill="black"/>
</mask>
<g mask="url(#mask0_213_119)">
<rect x="-6" y="14" width="33" height="52.7143" fill="black"/>
<rect x="-6" y="50" width="62" height="45" fill="black"/>
</g>
</g>
<path d="M34.3171 39.4871L46.5147 27.2895M61.8749 21.8653L58.2237 32.821C58.1651 32.9962 58.0652 33.1547 57.9325 33.2832C57.7997 33.4116 57.6379 33.5062 57.4608 33.5589L35.078 40.2136C34.8763 40.2734 34.6621 40.2769 34.4587 40.2235C34.2552 40.1701 34.0703 40.0619 33.924 39.9107C33.7778 39.7595 33.6758 39.5711 33.6292 39.366C33.5826 39.1608 33.5931 38.9469 33.6597 38.7473L40.9277 16.9471C40.9797 16.7906 41.0649 16.6471 41.1773 16.5264C41.2898 16.4057 41.4269 16.3106 41.5793 16.2476L51.9044 11.9964C52.1143 11.9097 52.3452 11.8871 52.5679 11.9314C52.7907 11.9758 52.9953 12.0851 53.156 12.2456L61.597 20.6885C61.748 20.8395 61.854 21.0296 61.9031 21.2374C61.9522 21.4453 61.9424 21.6627 61.8749 21.8653Z" stroke="black" stroke-width="2.5" stroke-linecap="round" stroke-linejoin="round"/>
<path d="M63.2721 6.09879L67.8031 10.6298C68.1436 10.9555 68.4156 11.346 68.6032 11.7783C68.7907 12.2106 68.89 12.676 68.8952 13.1472C68.9004 13.6184 68.8114 14.0859 68.6335 14.5223C68.4556 14.9586 68.1923 15.355 67.8591 15.6882C67.5259 16.0214 67.1295 16.2847 66.6931 16.4626C66.2568 16.6405 65.7893 16.7295 65.3181 16.7243C64.8469 16.7191 64.3815 16.6198 63.9492 16.4323C63.5169 16.2448 63.1264 15.9728 62.8006 15.6323L58.2677 11.1013C57.6284 10.433 57.2761 9.54101 57.2863 8.61624C57.2966 7.69146 57.6685 6.80745 58.3224 6.15349C58.9764 5.49954 59.8604 5.12763 60.7852 5.1174C61.71 5.10718 62.6039 5.45945 63.2721 6.09879Z" fill="black" stroke="black" stroke-width="1.5" stroke-linecap="round" stroke-linejoin="round"/>
<path d="M50.5797 23.2223C50.3145 22.9477 49.9972 22.7287 49.6465 22.578C49.2957 22.4273 48.9184 22.348 48.5367 22.3447C48.155 22.3414 47.7764 22.4141 47.4231 22.5587C47.0697 22.7033 46.7487 22.9167 46.4788 23.1867C46.2088 23.4566 45.9954 23.7776 45.8508 24.1309C45.7063 24.4843 45.6335 24.8628 45.6368 25.2446C45.6401 25.6263 45.7195 26.0036 45.8701 26.3543C46.0208 26.7051 46.2398 27.0224 46.5144 27.2876C47.0567 27.8113 47.7829 28.101 48.5367 28.0945C49.2905 28.0879 50.0116 27.7856 50.5447 27.2525C51.0777 26.7195 51.3801 25.9984 51.3866 25.2446C51.3932 24.4908 51.1034 23.7645 50.5797 23.2223Z" stroke="black" stroke-width="1.5" stroke-linecap="round" stroke-linejoin="round"/>
<circle cx="28" cy="76" r="4" fill="black"/>
<defs>
<clipPath id="clip0_213_119">
<rect width="56" height="85" fill="white" transform="translate(0 14)"/>
</clipPath>
</defs>
</svg>
