<svg width="98" height="98" viewBox="0 0 98 98" fill="none" xmlns="http://www.w3.org/2000/svg">
<path d="M48.9997 53.2059C53.0252 53.2059 56.2884 49.9426 56.2884 45.9172C56.2884 41.8917 53.0252 38.6284 48.9997 38.6284C44.9742 38.6284 41.7109 41.8917 41.7109 45.9172C41.7109 49.9426 44.9742 53.2059 48.9997 53.2059Z" fill="#171717"/>
<path d="M28.5916 60.4087L26.9787 59.9963C14.9982 56.9706 8.12598 51.8256 8.12598 45.9007C8.12598 39.9757 15.0023 34.8307 26.9787 31.805L28.5916 31.3967L29.0449 32.9932C30.2557 37.1734 31.8071 41.2472 33.6836 45.1738L34.0306 45.9007L33.6836 46.6275C31.8052 50.5597 30.2495 54.6349 29.0449 58.8162L28.5916 60.4087ZM26.2356 35.5208C17.1338 38.0852 11.5437 41.997 11.5437 45.9007C11.5437 49.7962 17.1297 53.7121 26.2356 56.2723C27.3517 52.7226 28.6924 49.2653 30.2576 45.9007C28.6824 42.5362 27.3386 39.0682 26.2356 35.5208ZM69.4046 60.4087L68.9554 58.8081C67.7418 54.627 66.1891 50.5519 64.3126 46.6234L63.9656 45.9007L64.3126 45.1697C66.191 41.2457 67.7386 37.1664 68.9554 32.9851L69.4046 31.3926L71.0175 31.8009C83.0021 34.8267 89.8702 39.9676 89.8702 45.9007C89.8702 51.8337 82.998 56.9706 71.0175 59.9963L69.4046 60.4087ZM67.7304 45.9007C69.3637 49.4368 70.7235 52.9158 71.7606 56.2723C80.8665 53.7121 86.4566 49.7962 86.4566 45.9007C86.4566 41.997 80.8706 38.0892 71.7606 35.5208C70.6435 39.0644 69.2973 42.5317 67.7304 45.9007Z" fill="#171717"/>
<path d="M26.2105 35.5045L25.7614 33.912C22.3885 22.0377 23.4094 13.5321 28.5666 10.5676C33.6095 7.648 41.7231 11.0984 50.2205 19.8163L51.3802 21.0087L50.2205 22.1969C47.2062 25.339 44.4479 28.7172 41.9722 32.2991L41.5108 32.9606L40.7105 33.0259C36.3648 33.3735 32.054 34.0686 27.8194 35.1043L26.2105 35.5045ZM32.6704 12.9277C31.753 12.9277 30.9513 13.1251 30.2653 13.5198C26.8843 15.4676 26.2881 22.25 28.6156 31.4048C32.2552 30.5963 35.9248 30.0287 39.6243 29.7021C41.7655 26.6639 44.102 23.7682 46.619 21.0332C41.2985 15.8596 36.276 12.9277 32.6704 12.9277ZM65.3248 82.2791C60.4738 82.2791 54.2426 78.6204 47.7746 71.9809L46.619 70.7927L47.7746 69.6085C50.7909 66.4626 53.5505 63.0804 56.027 59.4941L56.4844 58.8407L57.2765 58.7632C61.6244 58.4274 65.9373 57.7349 70.1717 56.6929L71.7846 56.2846L72.2379 57.8812C75.5944 69.7473 74.5776 78.2652 69.4285 81.2297C68.1767 81.9343 66.7612 82.2963 65.3248 82.2791ZM51.3802 70.7641C56.6967 75.9377 61.7233 78.8736 65.3248 78.8736C66.2476 78.8709 67.0493 78.6735 67.7299 78.2815C71.115 76.3297 71.7152 69.535 69.3795 60.3802C65.7454 61.1941 62.0731 61.7644 58.3627 62.0911C56.2303 65.1338 53.8976 68.0313 51.3802 70.7641Z" fill="#171717"/>
<path d="M71.7846 35.5047L70.1717 35.1005C65.9374 34.0557 61.6246 33.3606 57.2765 33.0221L56.4843 32.9527L56.027 32.2912C53.5557 28.7048 50.7957 25.3262 47.7746 22.189L46.619 21.0007L47.7746 19.8166C56.2679 11.1027 64.3774 7.65233 69.4285 10.5678C74.5817 13.5364 75.6066 22.042 72.2378 33.9122L71.7846 35.5047ZM58.3627 29.7023C62.2582 30.0494 65.9495 30.6333 69.3795 31.4051C71.7111 22.2502 71.1149 15.4678 67.7298 13.516C64.3652 11.5682 58.0319 14.5491 51.3802 21.0334C53.9009 23.7692 56.2284 26.6589 58.3627 29.7023ZM32.6703 82.2793C31.2339 82.2965 29.8184 81.9345 28.5666 81.2299C23.4093 78.2654 22.3885 69.7517 25.7572 57.8814L26.1982 56.2848L27.8112 56.6932C31.7475 57.6854 36.084 58.3837 40.7063 58.7634L41.4985 58.841L41.9599 59.4943C44.4262 63.0795 47.1866 66.4646 50.2082 69.6087L51.3679 70.7929L50.2082 71.9812C43.7443 78.6247 37.5132 82.2793 32.6703 82.2793ZM28.6156 60.3845C26.2881 69.5393 26.8842 76.334 30.2652 78.2858C33.634 80.205 39.9468 77.2446 46.619 70.7643C44.102 68.0293 41.7655 65.1336 39.6242 62.0954C35.9215 61.7643 32.2442 61.1928 28.6156 60.3845Z" fill="#171717"/>
<path d="M49.0003 62.5279C46.1951 62.5279 43.3163 62.4095 40.4253 62.1686L39.625 62.0992L39.1636 61.4377C37.5344 59.0927 36.0006 56.6829 34.5657 54.2143C33.1425 51.7383 31.8198 49.2059 30.6008 46.6233L30.2578 45.9006L30.6008 45.1697C31.8204 42.589 33.142 40.0601 34.5657 37.5828C35.9826 35.1492 37.5302 32.7155 39.1636 30.3553L39.625 29.702L40.4253 29.6285C46.1291 29.1479 51.8633 29.1479 57.5671 29.6285L58.3593 29.7061L58.8207 30.3594C62.0888 35.0488 64.9572 40.0043 67.3957 45.1738L67.7346 45.9047L67.3957 46.6274C64.9572 51.7969 62.0888 56.7524 58.8207 61.4418L58.3593 62.1033L57.5671 62.1727C54.6843 62.4054 51.8015 62.5279 49.0003 62.5279ZM41.5115 58.8366C46.5544 59.2163 51.4462 59.2163 56.4851 58.8366C59.2976 54.7171 61.7982 50.3931 63.9657 45.9006C61.805 41.4045 59.3042 37.0799 56.4851 32.9646C51.5012 32.5827 46.4954 32.5827 41.5115 32.9646C38.6923 37.0799 36.1915 41.4045 34.0308 45.9006C36.205 50.3896 38.7052 54.7131 41.5115 58.8366Z" fill="#171717"/>
</svg>
