<svg width="92" height="92" viewBox="0 0 92 92" fill="none" xmlns="http://www.w3.org/2000/svg">
<path d="M45.9998 23C35.7648 23 29.4015 28.0983 26.8332 38.3333C30.6665 33.235 35.1515 31.3183 40.2498 32.5833C43.1632 33.3117 45.2715 35.42 47.5715 37.7583C51.3282 41.5917 55.5832 46 65.1665 46C75.4015 46 81.7648 40.9017 84.3332 30.6667C80.4998 35.765 76.0148 37.6817 70.9165 36.4167C68.0032 35.6883 65.9332 33.58 63.5948 31.2417C59.8382 27.4083 55.5832 23 45.9998 23ZM26.8332 46C16.5982 46 10.2348 51.0983 7.6665 61.3333C11.4998 56.235 15.9848 54.3183 21.0832 55.5833C23.9965 56.3117 26.0665 58.42 28.4048 60.7583C32.1615 64.5917 36.4165 69 45.9998 69C56.2348 69 62.5982 63.9017 65.1665 53.6667C61.3332 58.765 56.8482 60.6817 51.7498 59.4167C48.8365 58.6883 46.7665 56.58 44.4282 54.2417C40.6715 50.4083 36.4165 46 26.8332 46Z" fill="#171717"/>
</svg>
