<svg width="99" height="99" viewBox="0 0 99 99" fill="none" xmlns="http://www.w3.org/2000/svg">
<path d="M78.9153 12.375H20.0845C16.1451 12.375 12.9482 15.6214 12.9482 19.6267V79.3733C12.9482 83.3745 16.1451 86.625 20.0845 86.625H78.9153C82.8588 86.625 86.0515 83.3786 86.0515 79.3733V19.6267C86.0515 15.6255 82.8588 12.375 78.9153 12.375ZM55.3532 53.559H46.2164V80.0992H38.9357V53.559H29.7947V47.6149H55.3532V53.559ZM78.9153 75.3266C78.3419 76.6342 77.3601 77.6036 76.201 78.375C74.9718 79.1351 73.619 79.674 72.2039 79.9672C70.6075 80.3032 68.9801 80.4692 67.3487 80.4623C65.6731 80.4674 64.0007 80.3155 62.3534 80.0085C60.9148 79.7553 59.5201 79.2968 58.2119 78.6472V71.6801L57.9396 71.4615L58.2119 71.3996V71.6801C59.4246 72.6619 60.7611 73.4113 62.2214 73.9283C63.6527 74.4769 65.2202 74.7532 66.7919 74.7532C67.7901 74.7532 68.5491 74.6666 69.2215 74.5058C69.8256 74.3681 70.4036 74.1341 70.9334 73.8127C71.3552 73.5572 71.7045 73.198 71.9481 72.7691C72.2003 72.2923 72.3138 71.7544 72.2759 71.2163C72.238 70.6783 72.0501 70.1616 71.7336 69.7249C71.3481 69.1794 70.864 68.7107 70.3064 68.343C69.6337 67.867 68.9151 67.4593 68.1614 67.1261C67.3075 66.7343 66.4371 66.3259 65.4512 65.9216C63.0216 64.7625 61.1076 63.6034 59.8825 62.0029C58.6409 60.5591 58.0262 58.6699 58.0262 56.496C58.0262 54.7553 58.3562 53.361 59.0245 52.1441C59.7381 50.8406 60.5796 49.8836 61.7387 49.0999C62.8814 48.3037 64.1642 47.7221 65.7359 47.3591C67.3034 46.9961 68.8791 46.8105 70.591 46.8105C72.3029 46.8105 73.7343 46.9095 75.0171 47.1116C76.3 47.3179 77.5004 47.6355 78.5853 48.0562V54.8708C78.051 54.4792 77.4773 54.1446 76.8734 53.8725C75.5959 53.3183 74.2503 52.9368 72.8721 52.7381C72.2577 52.6462 71.6372 52.6007 71.0159 52.602C70.249 52.5917 69.4834 52.6707 68.7347 52.8371C68.1288 52.958 67.5482 53.1827 67.0187 53.5013C66.5874 53.7589 66.2206 54.1116 65.9463 54.5325C65.691 54.9357 65.5578 55.4042 65.5626 55.8814C65.5626 56.4149 65.7056 56.8975 65.9916 57.3292C66.2749 57.7472 66.6805 58.1543 67.2085 58.5503C67.6787 58.9256 68.3222 59.3051 69.0647 59.6805C69.9186 60.0559 70.69 60.4354 71.6346 60.8273C72.9175 61.3759 74.0601 61.9864 75.0584 62.568C76.0607 63.1455 76.9023 63.8261 77.6283 64.5975C78.3996 65.3194 78.9565 66.1939 79.3443 67.2086C79.732 68.2234 79.93 69.366 79.93 70.686C79.93 72.5711 79.4845 74.0231 78.9153 75.3266Z" fill="#171717"/>
</svg>
