<svg width="114" height="114" viewBox="0 0 114 110" fill="none" xmlns="http://www.w3.org/2000/svg">
<mask id="mask0_213_132" style="mask-type:alpha" maskUnits="userSpaceOnUse" x="0" y="11" width="99" height="99">
<path d="M16.5001 77H82.5001V31.625H16.5001V77ZM53.6251 85.25V93.5H70.1251V101.75H28.8751V93.5H45.3751V85.25H12.3421C11.8004 85.2457 11.2649 85.1347 10.7661 84.9234C10.2672 84.7121 9.81492 84.4046 9.43494 84.0185C9.05496 83.6324 8.75476 83.1752 8.55147 82.6731C8.34818 82.171 8.24578 81.6337 8.25013 81.092V27.533C8.25013 25.2354 10.127 23.375 12.3421 23.375H86.6581C88.9186 23.375 90.7501 25.2271 90.7501 27.5289V81.092C90.7501 83.3896 88.8733 85.25 86.6581 85.25H53.6251Z" fill="white"/>
</mask>
<g mask="url(#mask0_213_132)">
<rect x="-12" y="-3" width="73" height="113" fill="black"/>
<rect x="-12" y="50" width="121" height="62" fill="black"/>
</g>
<path d="M74.3171 39.4871L86.5147 27.2895M101.875 21.8653L98.2237 32.821C98.1651 32.9962 98.0652 33.1547 97.9325 33.2832C97.7997 33.4116 97.6379 33.5062 97.4608 33.5589L75.078 40.2136C74.8763 40.2734 74.6621 40.2769 74.4587 40.2235C74.2552 40.1701 74.0703 40.0619 73.924 39.9107C73.7778 39.7595 73.6758 39.5711 73.6292 39.366C73.5826 39.1608 73.5931 38.9469 73.6597 38.7473L80.9277 16.9471C80.9797 16.7906 81.0649 16.6471 81.1773 16.5264C81.2898 16.4057 81.4269 16.3106 81.5793 16.2476L91.9044 11.9964C92.1143 11.9097 92.3452 11.8871 92.5679 11.9314C92.7907 11.9758 92.9953 12.0851 93.156 12.2456L101.597 20.6885C101.748 20.8395 101.854 21.0296 101.903 21.2374C101.952 21.4453 101.942 21.6627 101.875 21.8653Z" stroke="black" stroke-width="2.5" stroke-linecap="round" stroke-linejoin="round"/>
<path d="M103.272 6.09879L107.803 10.6298C108.144 10.9555 108.416 11.346 108.603 11.7783C108.791 12.2106 108.89 12.676 108.895 13.1472C108.9 13.6184 108.811 14.0859 108.633 14.5223C108.456 14.9586 108.192 15.355 107.859 15.6882C107.526 16.0214 107.129 16.2847 106.693 16.4626C106.257 16.6405 105.789 16.7295 105.318 16.7243C104.847 16.7191 104.381 16.6198 103.949 16.4323C103.517 16.2448 103.126 15.9728 102.801 15.6323L98.2677 11.1013C97.6284 10.433 97.2761 9.54101 97.2863 8.61624C97.2966 7.69146 97.6685 6.80745 98.3224 6.15349C98.9764 5.49954 99.8604 5.12763 100.785 5.1174C101.71 5.10718 102.604 5.45945 103.272 6.09879Z" fill="black" stroke="black" stroke-width="1.5" stroke-linecap="round" stroke-linejoin="round"/>
<path d="M90.5797 23.2223C90.3145 22.9477 89.9972 22.7287 89.6465 22.578C89.2957 22.4273 88.9184 22.348 88.5367 22.3447C88.155 22.3414 87.7764 22.4141 87.4231 22.5587C87.0697 22.7033 86.7487 22.9167 86.4788 23.1867C86.2088 23.4566 85.9954 23.7776 85.8508 24.1309C85.7063 24.4843 85.6335 24.8628 85.6368 25.2446C85.6401 25.6263 85.7195 26.0036 85.8701 26.3543C86.0208 26.7051 86.2398 27.0224 86.5144 27.2876C87.0567 27.8113 87.7829 28.101 88.5367 28.0945C89.2905 28.0879 90.0116 27.7856 90.5447 27.2525C91.0777 26.7195 91.3801 25.9984 91.3866 25.2446C91.3932 24.4908 91.1034 23.7645 90.5797 23.2223Z" stroke="black" stroke-width="1.5" stroke-linecap="round" stroke-linejoin="round"/>
</svg>
