<svg width="50" height="50" viewBox="0 0 50 50" fill="none" xmlns="http://www.w3.org/2000/svg">
<path d="M25.0003 4.16675C22.2645 4.16675 19.5554 4.70562 17.0278 5.75259C14.5001 6.79956 12.2035 8.33414 10.2689 10.2687C6.36193 14.1757 4.16699 19.4747 4.16699 25.0001C4.16699 34.2084 10.1462 42.0209 18.417 44.7918C19.4587 44.9584 19.792 44.3126 19.792 43.7501V40.2292C14.0212 41.4792 12.792 37.4376 12.792 37.4376C11.8337 35.0209 10.4795 34.3751 10.4795 34.3751C8.58366 33.0834 10.6253 33.1251 10.6253 33.1251C12.7087 33.2709 13.8128 35.2709 13.8128 35.2709C15.6253 38.4376 18.6878 37.5001 19.8753 37.0001C20.0628 35.6459 20.6045 34.7292 21.1878 34.2084C16.5628 33.6876 11.7087 31.8959 11.7087 23.9584C11.7087 21.6459 12.5003 19.7917 13.8545 18.3126C13.6462 17.7917 12.917 15.6251 14.0628 12.8126C14.0628 12.8126 15.8128 12.2501 19.792 14.9376C21.4378 14.4792 23.2295 14.2501 25.0003 14.2501C26.7712 14.2501 28.5628 14.4792 30.2087 14.9376C34.1878 12.2501 35.9378 12.8126 35.9378 12.8126C37.0837 15.6251 36.3545 17.7917 36.1462 18.3126C37.5003 19.7917 38.292 21.6459 38.292 23.9584C38.292 31.9167 33.417 33.6667 28.7712 34.1876C29.5212 34.8334 30.2087 36.1043 30.2087 38.0418V43.7501C30.2087 44.3126 30.542 44.9793 31.6045 44.7918C39.8753 42.0001 45.8337 34.2084 45.8337 25.0001C45.8337 22.2642 45.2948 19.5551 44.2478 17.0275C43.2008 14.4999 41.6663 12.2032 39.7317 10.2687C37.7972 8.33414 35.5005 6.79956 32.9729 5.75259C30.4453 4.70562 27.7362 4.16675 25.0003 4.16675Z" fill="white"/>
</svg>
