<svg width="58" height="57" viewBox="0 0 58 57" fill="none" xmlns="http://www.w3.org/2000/svg">
<path d="M8.16827 1.23197C7.3721 0.490081 6.31903 0.0861927 5.23095 0.105391C4.14286 0.124589 3.1047 0.565375 2.33519 1.33489C1.56568 2.1044 1.12489 3.14256 1.10569 4.23064C1.0865 5.31873 1.49038 6.37179 2.23227 7.16797L23.0643 28L2.23227 48.832C1.81963 49.2165 1.48865 49.6802 1.2591 50.1954C1.02954 50.7106 0.906111 51.2667 0.896161 51.8306C0.886211 52.3946 0.989948 52.9547 1.20119 53.4777C1.41242 54.0007 1.72683 54.4758 2.12566 54.8746C2.52448 55.2734 2.99955 55.5878 3.52253 55.7991C4.0455 56.0103 4.60566 56.114 5.1696 56.1041C5.73354 56.0941 6.28969 55.9707 6.80489 55.7411C7.32008 55.5116 7.78377 55.1806 8.16827 54.768L29.0003 33.936L49.8323 54.768C50.2168 55.1806 50.6805 55.5116 51.1957 55.7411C51.7109 55.9707 52.267 56.0941 52.831 56.1041C53.3949 56.114 53.9551 56.0103 54.478 55.7991C55.001 55.5878 55.4761 55.2734 55.8749 54.8746C56.2737 54.4758 56.5881 54.0007 56.7994 53.4777C57.0106 52.9547 57.1143 52.3946 57.1044 51.8306C57.0944 51.2667 56.971 50.7106 56.7415 50.1954C56.5119 49.6802 56.1809 49.2165 55.7683 48.832L34.9363 28L55.7683 7.16797C56.5102 6.37179 56.9141 5.31873 56.8949 4.23064C56.8757 3.14256 56.4349 2.1044 55.6654 1.33489C54.8958 0.565375 53.8577 0.124589 52.7696 0.105391C51.6815 0.0861927 50.6285 0.490081 49.8323 1.23197L29.0003 22.064L8.16827 1.23197Z" fill="white"/>
</svg>
